<svg xmlns="http://www.w3.org/2000/svg" viewBox="0 0 512 512" width="512" height="512"><rect width="512" height="512" fill="#11141d"/><g fill="#3b82f6"><circle cx="150.76" cy="184.00" r="8.16"/><circle cx="246.76" cy="184.00" r="8.16"/><circle cx="150.76" cy="208.00" r="8.16"/><circle cx="174.76" cy="208.00" r="8.16"/><circle cx="222.76" cy="208.00" r="8.16"/><circle cx="246.76" cy="208.00" r="8.16"/><circle cx="150.76" cy="232.00" r="8.16"/><circle cx="198.76" cy="232.00" r="8.16"/><circle cx="246.76" cy="232.00" r="8.16"/><circle cx="150.76" cy="256.00" r="8.16"/><circle cx="198.76" cy="256.00" r="8.16"/><circle cx="246.76" cy="256.00" r="8.16"/><circle cx="150.76" cy="280.00" r="8.16"/><circle cx="246.76" cy="280.00" r="8.16"/><circle cx="150.76" cy="304.00" r="8.16"/><circle cx="246.76" cy="304.00" r="8.16"/><circle cx="150.76" cy="328.00" r="8.16"/><circle cx="246.76" cy="328.00" r="8.16"/><circle cx="281.56" cy="184.00" r="8.16"/><circle cx="377.56" cy="184.00" r="8.16"/><circle cx="281.56" cy="208.00" r="8.16"/><circle cx="377.56" cy="208.00" r="8.16"/><circle cx="305.56" cy="232.00" r="8.16"/><circle cx="353.56" cy="232.00" r="8.16"/><circle cx="329.56" cy="256.00" r="8.16"/><circle cx="305.56" cy="280.00" r="8.16"/><circle cx="353.56" cy="280.00" r="8.16"/><circle cx="281.56" cy="304.00" r="8.16"/><circle cx="377.56" cy="304.00" r="8.16"/><circle cx="281.56" cy="328.00" r="8.16"/><circle cx="377.56" cy="328.00" r="8.16"/></g></svg>
